<?xml version="1.0" standalone="no"?>
<!DOCTYPE svg PUBLIC "-//W3C//DTD SVG 20010904//EN"
 "http://www.w3.org/TR/2001/REC-SVG-20010904/DTD/svg10.dtd">
<svg version="1.0" xmlns="http://www.w3.org/2000/svg"
 width="512.000000pt" height="512.000000pt" viewBox="0 0 512.000000 512.000000"
 preserveAspectRatio="xMidYMid meet">
<metadata>
Created by potrace 1.14, written by Peter Selinger 2001-2017
</metadata>
<g transform="translate(0.000000,512.000000) scale(0.100000,-0.100000)"
fill="#000000" stroke="none">
<path d="M273 5098 c-116 -39 -220 -147 -258 -268 -11 -38 -13 -392 -12 -2285
l2 -2240 33 -70 c21 -44 51 -86 81 -115 64 -59 67 -62 131 -90 l55 -25 2250 0
c2195 0 2251 0 2300 19 28 11 57 25 66 33 8 7 20 13 26 13 21 0 106 106 137
170 l31 65 0 2255 0 2255 -32 67 c-44 93 -100 151 -191 196 l-76 37 -2240 2
-2241 2 -62 -21z"/>
</g>
</svg>
